<svg aria-hidden="true" style="width:0;height:0;position:absolute;overflow:hidden" xmlns="http://www.w3.org/2000/svg"><defs><symbol id="icon-arrow" viewBox="0 0 82 32"><path d="M81.414 17.414c.362-.362.586-.862.586-1.414s-.224-1.052-.586-1.414L68.686 1.858a2 2 0 1 0-2.829 2.827l.001.001L77.172 16 65.858 27.314a2 2 0 0 0 2.829 2.827l-.001.001 12.728-12.728zM0 18h80v-4H0v4z"/></symbol><symbol id="icon-buy-now-arrow" viewBox="0 0 32 32"><path d="M10.587 3.272c-.361.362-.585.861-.585 1.413s.223 1.051.585 1.413l9.899 9.901-9.899 9.899a2 2 0 0 0 2.828 2.825l-.001.001 11.315-11.312c.361-.362.585-.861.585-1.413s-.224-1.052-.585-1.413L13.414 3.271c-.362-.361-.861-.585-1.413-.585s-1.052.224-1.413.585z"/></symbol><symbol id="icon-close-cross" viewBox="0 0 32 32"><path d="m17.253 16 7.369-7.369a.889.889 0 0 0-1.255-1.252l.001-.001-7.369 7.369L8.63 7.37a.893.893 0 1 0-1.263 1.26l.001.001L14.747 16l-7.379 7.369a.888.888 0 1 0 1.252 1.254l.001-.001L16 17.253l7.368 7.369a.889.889 0 0 0 1.252-1.255l.001.001-7.368-7.369z"/></symbol><symbol id="icon-facebook" viewBox="0 0 32 32"><path fill="#f8d24e" style="fill:var(--color1,#f8d24e)" d="M16 32c8.837 0 16-7.163 16-16S24.837 0 16 0 0 7.163 0 16s7.163 16 16 16z"/><path fill="#84a178" style="fill:var(--color2,#84a178)" d="M20.446 15.981h-2.611V25.6H13.88v-9.619H12v-3.379h1.88v-2.187c0-1.564.739-4.014 3.991-4.014l2.929.012v3.281h-2.125c-.348 0-.839.176-.839.922v1.989h2.955l-.345 3.377z"/></symbol><symbol id="icon-github" viewBox="0 0 32 32"><path fill="#f8d24e" style="fill:var(--color1,#f8d24e)" d="M32 16c0 8.837-7.163 16-16 16S0 24.837 0 16 7.163 0 16 0s16 7.163 16 16z"/><path fill="#84a178" style="fill:var(--color2,#84a178)" d="M16 6.588c-5.17 0-9.412 4.242-9.412 9.412 0 4.411 3.096 8.419 7.206 9.412v-3.113a2.314 2.314 0 0 1-1.196-.031c-.556-.164-1.008-.535-1.344-1.099-.214-.36-.593-.753-.988-.724l-.097-1.098c.856-.073 1.594.521 2.033 1.258.196.328.421.52.709.605.278.083.577.043.925-.08.088-.697.408-.958.649-1.327-2.452-.365-3.429-1.666-3.816-2.692-.514-1.364-.238-3.066.67-4.143.018-.021.05-.075.038-.113-.417-1.259.09-2.3.109-2.41.481.141.559-.143 2.089.786l.264.159c.111.066.075.028.186.019a7.787 7.787 0 0 1 1.97-.276h.006a8.021 8.021 0 0 1 2.002.284l.086.009c-.008-.002.024-.006.075-.037 1.911-1.158 1.842-.779 2.355-.946.019.111.519 1.169.106 2.411-.056.171 1.656 1.739.708 4.256-.388 1.026-1.365 2.328-3.816 2.693.314.48.692.734.69 1.722v3.886c4.109-.993 7.206-5 7.206-9.412 0-5.17-4.242-9.412-9.412-9.412z"/></symbol><symbol id="icon-logo" viewBox="0 0 30 32"><path fill="#f8d24e" style="fill:var(--color1,#f8d24e)" d="M15.226 17.082c1.415-3.784-1.515-5.855-3.457-7.217-.371-.278-.742-.538-1.044-.776a3.627 3.627 0 0 1-1.133-1.674l-.007-.026a3.48 3.48 0 0 1-.163-1.067c0-.345.049-.679.141-.995l-.006.025a.39.39 0 0 0-.115-.395.402.402 0 0 0-.412-.08l.003-.001c-.69.273-1.285.63-1.811 1.067l.011-.009a4.272 4.272 0 0 0-1.215 1.452l-.011.024a4.115 4.115 0 0 0-.442 1.857v.001a4.977 4.977 0 0 0-.952.978l-.01.014a3.579 3.579 0 0 0-.709 2.332v-.008a4.607 4.607 0 0 0-1.276 1.945l-.009.032a4.55 4.55 0 0 0-.124 2.376l-.005-.03a1.247 1.247 0 0 0-.609 1.065c0 .12.017.237.05.347l-.002-.009c.075.262.235.493.456.657s.49.252.767.25h.026v2.151c0 .219.089.428.245.583s.369.241.591.241h.65l1.058 9.04c.022.201.118.387.271.522s.351.21.556.21h4.404c.206 0 .404-.075.557-.21s.251-.32.275-.522l1.058-9.04h.65a.844.844 0 0 0 .591-.241.817.817 0 0 0 .245-.582v-2.152H14.347c.348 0 .663-.139.894-.365a1.24 1.24 0 0 0 .371-.883v-.014c0-.343-.142-.654-.371-.875l-.011.003zm-9.531-6.866c.535 1.98 2.599 2.759 4.482 3.455a.41.41 0 0 0 .493-.052.4.4 0 0 0 .124-.289l-.001-.028v.001a.393.393 0 0 0-.166-.295l-.001-.001a.402.402 0 0 0-.16-.068h-.003c-2.027-.758-3.939-1.464-4.084-3.488a3.32 3.32 0 0 1 .318-1.639l-.009.02a3.417 3.417 0 0 1 1.038-1.277l.009-.006c.283-.231.586-.438.906-.615a4.491 4.491 0 0 0 .002.779l-.001-.017c.047.615.216 1.181.484 1.686l-.011-.023c.281.531.648.98 1.087 1.343l.007.006c.308.26.691.527 1.114.812.977.692 2.087 1.465 2.792 2.511.441.619.704 1.39.704 2.223 0 .538-.11 1.051-.309 1.517l.01-.025h-1.641c-3.382 0-7.27-.922-8.038-3.506a2.94 2.94 0 0 1 .009-1.646l-.005.021a2.968 2.968 0 0 1 .87-1.377l.003-.003-.019-.018zM8.74 22.693l1.24 1.222-1.241 1.222-1.24-1.23 1.24-1.215zm2.844 3.21-1.025 1.01-1.24-1.222 1.241-1.219 1.076 1.057-.052.374zM8.74 28.706l-1.241-1.222 1.241-1.222 1.24 1.222-1.241 1.222zm-.568-3.008L6.931 26.92l-1.032-1.018-.044-.366 1.077-1.057 1.24 1.219zM6.36 27.484l-.249.245-.063-.556.312.311zm-.13 1.251.702-.692 1.363 1.354a.763.763 0 0 0 .026.081H6.316l-.086-.743zm4.322-.691.702.692-.086.732h-2.06l1.444-1.424zm.816-.315-.249-.245.316-.311-.067.556zm.372-3.199-.62-.622.787-.776-.167 1.398zm-1.192-1.178-1.177-1.156h2.354l-1.177 1.157zm-3.62 0-1.177-1.156h2.354l-1.177 1.157zm4.01 7.817h-4.4a.03.03 0 0 1-.026-.025l-.104-.879h4.664l-.1.879a.03.03 0 0 1-.029.026h-.003zm3.405-12.751h-1.292a.406.406 0 0 0-.311.102.392.392 0 0 0 0 .59.403.403 0 0 0 .271.103l.042-.002h-.002.46v2.152a.032.032 0 0 1-.01.019.032.032 0 0 1-.019.007H3.986a.032.032 0 0 1-.019-.007.032.032 0 0 1-.01-.019v-2.152h7.355a.408.408 0 0 0 .261-.129.394.394 0 0 0 0-.537.402.402 0 0 0-.259-.128h-8.17a.467.467 0 0 1-.353-.117.453.453 0 0 1-.15-.335v-.001c0-.133.058-.252.149-.334a.462.462 0 0 1 .31-.119l.044.002h-.002.843a.408.408 0 0 0 .261-.129.394.394 0 0 0 0-.537.408.408 0 0 0-.259-.129h-.744a3.919 3.919 0 0 1 .056-1.707l-.006.027c.15-.579.412-1.083.764-1.511l-.005.007c.26.798.928 1.889 2.599 2.756 1.57.808 3.65 1.222 6.178 1.222h1.485a.462.462 0 0 1 .352.117.453.453 0 0 1 .15.335v.001a.449.449 0 0 1-.149.334.462.462 0 0 1-.31.119l-.044-.002H14.341z"/><path fill="#f8d24e" style="fill:var(--color1,#f8d24e)" d="m16.964 29.152-.293.448.006.004.287-.453zm3.149.152.535-.012-.014-.62-.611.104.09.528zm.037 1.647.136.518.409-.108-.01-.422-.535.012zm-4.133.079.121-.522-.003-.001-.117.523zm-2.039-.911.347-.409h-.001l-.346.409zm-.738-1.673.536.003v-.003h-.536zm.256-1.172-.48-.236v.001l.48.235zm1.642-1.402.19.501.002-.001-.192-.5zm5.263-.136.534.041.035-.452-.44-.109-.129.52zm-.131 1.679-.099.526.587.111.046-.596-.534-.042zm-1.428-.687c-.804 0-1.48.086-1.973.303a1.616 1.616 0 0 0-.651.489 1.253 1.253 0 0 0-.255.76v.015-.001h1.071v-.013c0-.043.014-.083.038-.115a.57.57 0 0 1 .228-.156c.288-.127.783-.212 1.542-.212v-1.072zm-2.879 1.566c0 .551.247 1.006.709 1.307l.585-.897a.433.433 0 0 1-.223-.409h-1.071zm.714 1.31c.438.277 1.015.381 1.663.381v-1.071c-.559 0-.899-.095-1.089-.215l-.574.905zm1.663.381c.635 0 1.256-.051 1.863-.154l-.179-1.056c-.5.088-1.077.139-1.665.139h-.02.001v1.071zm1.238-.67.036 1.648 1.071-.024-.037-1.647-1.071.024zm.435 1.118a7.964 7.964 0 0 1-2.029.244v1.071c.821 0 1.589-.092 2.302-.279l-.273-1.036zm-2.029.244c-.757 0-1.369-.06-1.846-.169l-.241 1.044c.582.134 1.281.197 2.087.197v-1.071zm-1.85-.17c-.511-.114-.881-.236-1.127-.356l-.47.962c.353.172.814.316 1.363.439l.234-1.046zm-1.126-.356a3.264 3.264 0 0 1-.688-.444l.005.004-.693.817c.263.222.561.417.881.574l.026.011.47-.962zm-.685-.441c-.364-.308-.55-.709-.547-1.262l-1.071-.005c-.004.842.301 1.556.927 2.085l.692-.818zm-.547-1.264c0-.36.07-.669.202-.936l-.962-.471c-.211.43-.311.902-.311 1.407h1.071zm.201-.936c.243-.495.673-.88 1.351-1.137l-.38-1.002c-.884.336-1.549.886-1.933 1.666l.961.473zm1.354-1.138c.712-.273 1.507-.414 2.392-.414v-1.071c-.999 0-1.926.159-2.776.485l.384 1zm2.392-.414c.901 0 1.751.1 2.549.298l.258-1.04c-.89-.221-1.826-.33-2.807-.33v1.071zm2.144-.263-.13 1.679 1.068.084.131-1.679-1.068-.083zm.503 1.194a8.343 8.343 0 0 0-1.528-.161v1.071c.377 0 .818.046 1.328.142l.199-1.053zm5.226.855-.003.536.544.003-.005-.544-.536.005zm-.23-.695-.364.393.005.004.359-.397zm-1.334.053.371.386.004-.004-.375-.383zm-.324.632-.529-.087-.101.619.627.003.003-.536zm3.938 2.856.324.427.192-.146.018-.241-.534-.039zm-1.156.429-.115-.523h-.003l.118.523zm-4.017-.146-.182.504.004.001.178-.505zm-.915-.487-.332.42.003.002.003.002.326-.425zm-.612-.769-.48.237.001.002.479-.24zm.627-3.248zm4.896-.581.214-.49-.005-.002-.209.493zm1.23 1.13-.482.234.001.003.48-.237zm.209.937.534.038.001-.019v-.02h-.536zm-.063.863-.002.536.501.002.036-.499-.534-.039zm-4.242-.021.003-.536-.699-.003.178.676.518-.137zm.607.748-.263.466.002.001.261-.468zm3.253-.183v-.536h-.107l-.098.041.206.495zm.282 0 .534.039.043-.575h-.577v.536zm-1.613-1.523c-.004-.387-.094-.803-.406-1.087l-.72.794c-.006-.005.006.001.021.047a.87.87 0 0 1 .033.257l1.071-.011zm-.402-1.082c-.281-.261-.65-.347-1.013-.347v1.071c.208 0 .272.05.284.061l.729-.785zm-1.013-.348c-.399 0-.77.125-1.06.409l.75.766c.059-.058.144-.103.31-.103v-1.072zm-1.056.406a1.63 1.63 0 0 0-.481.923l-.001.009 1.057.174a.568.568 0 0 1 .166-.334l-.742-.773zm.044 1.555 1.889.01.006-1.071-1.889-.011-.006 1.071zm3.618 1.893c-.118.089-.404.213-.948.333l.23 1.046c.565-.125 1.05-.287 1.365-.525l-.647-.854zm-.951.334a6.544 6.544 0 0 1-1.496.175h-.002v1.071c.566 0 1.145-.068 1.735-.202l-.236-1.045zm-1.498.175c-.505 0-.921-.024-1.252-.068l-.143 1.062c.394.053.861.078 1.395.078v-1.071zm-1.252-.069a4.79 4.79 0 0 1-1.004-.247l.034.011-.357 1.01a5.96 5.96 0 0 0 1.184.288l.143-1.062zm-.966-.234a2.82 2.82 0 0 1-.772-.408l-.652.85c.305.234.661.42 1.058.565l.365-1.007zm-.766-.403a1.726 1.726 0 0 1-.461-.578l-.004-.01-.958.479c.186.377.442.694.753.945l.005.004.666-.84zm-.464-.586c-.113-.228-.18-.521-.18-.897h-1.071c0 .502.09.965.29 1.372l.96-.475zm-.18-.898c0-.377.068-.71.196-1.006l-.983-.426a3.57 3.57 0 0 0-.285 1.432h1.071zm.196-1.005c.135-.311.3-.542.487-.707l-.713-.8a3.036 3.036 0 0 0-.757 1.082l.983.426zm.488-.708c.576-.513 1.454-.811 2.719-.811v-1.071c-1.419 0-2.591.333-3.432 1.083l.713.799zm2.719-.811a4.08 4.08 0 0 1 1.611.323l.418-.986a5.069 5.069 0 0 0-2.01-.409h-.021.001v1.071zm1.606.321c.474.207.78.5.961.873l.963-.468c-.307-.632-.82-1.092-1.497-1.387l-.428.982zm.963.877c.1.202.154.432.154.699h1.071c0-.417-.086-.811-.265-1.174l-.96.474zm.156.659-.063.863 1.068.078.063-.863-1.068-.077zm.474.367-4.242-.021-.005 1.071 4.242.021.005-1.071zm-4.763.651c.126.475.432.834.862 1.078l.527-.933c-.212-.12-.31-.258-.352-.418l-1.036.274zm.863 1.079c.434.243.978.34 1.585.34v-1.071c-.509 0-.848-.084-1.062-.204l-.523.935zm1.585.34c.651 0 1.367-.176 2.136-.496l-.412-.989c-.688.287-1.26.414-1.724.414v1.071zm1.93-.455h.283v-1.071h-.282v1.071zm-.251-.576-.1 1.329 1.068.08.099-1.329-1.068-.08z"/></symbol><symbol id="icon-menu-close" viewBox="0 0 32 32"><path fill="#fcfcfc" style="fill:var(--color3,#fcfcfc)" d="M23.884 6.706 16 14.59 8.116 6.706a.996.996 0 0 0-1.672.736c0 .26.099.497.262.674l-.001-.001 7.88 7.884-7.882 7.882a.998.998 0 0 0 1.41 1.412l7.886-7.882 7.884 7.884a.996.996 0 0 0 1.672-.736.992.992 0 0 0-.262-.674l.001.001-7.884-7.884 7.884-7.886a.998.998 0 0 0-1.41-1.412v.002z"/></symbol><symbol id="icon-menu-open" viewBox="0 0 32 32"><path fill="#fff" style="fill:var(--color4,#fff)" d="M26.733 14.667H5.267c-.7 0-1.267.567-1.267 1.266v.134c0 .7.567 1.266 1.267 1.266h21.466c.7 0 1.267-.567 1.267-1.266v-.134c0-.7-.567-1.266-1.267-1.266zm0 6.666H5.267C4.567 21.333 4 21.9 4 22.6v.133c0 .7.567 1.267 1.267 1.267h21.466c.7 0 1.267-.567 1.267-1.267V22.6c0-.7-.567-1.267-1.267-1.267zm0-13.333H5.267C4.567 8 4 8.567 4 9.267V9.4c0 .7.567 1.267 1.267 1.267h21.466c.7 0 1.267-.567 1.267-1.267v-.133C28 8.567 27.433 8 26.733 8z"/></symbol><symbol id="icon-telegram" viewBox="0 0 32 32"><path fill="#f8d24e" style="fill:var(--color1,#f8d24e)" d="M32 16c0 8.837-7.163 16-16 16S0 24.837 0 16 7.163 0 16 0s16 7.163 16 16z"/><path fill="#84a178" style="fill:var(--color2,#84a178)" d="m12.869 18.376-.318 4.169c.455 0 .651-.183.888-.401l2.131-1.901 4.414 3.018c.809.421 1.38.199 1.598-.696l2.899-12.673c.257-1.117-.433-1.554-1.222-1.28L6.227 14.698c-1.162.422-1.144 1.026-.198 1.301l4.355 1.264 10.115-5.907c.475-.295.908-.132.552.163l-8.182 6.856z"/></symbol></defs></svg>